<?xml version="1.0" encoding="iso-8859-1"?>
<!-- Generator: Adobe Illustrator 25.2.1, SVG Export Plug-In . SVG Version: 6.00 Build 0)  -->
<svg version="1.1" id="Layer_1" xmlns="http://www.w3.org/2000/svg" xmlns:xlink="http://www.w3.org/1999/xlink" x="0px" y="0px"
	 viewBox="0 0 48 48" style="enable-background:new 0 0 48 48;" xml:space="preserve">
<linearGradient id="SVGID_1_" gradientUnits="userSpaceOnUse" x1="15.865" y1="45.837" x2="15.865" y2="40.453">
	<stop  offset="0" style="stop-color:#4AAF50"/>
	<stop  offset="0.1846" style="stop-color:#43AD50"/>
	<stop  offset="0.4045" style="stop-color:#38AA50"/>
	<stop  offset="0.6127" style="stop-color:#27A550"/>
	<stop  offset="0.8184" style="stop-color:#14A150"/>
	<stop  offset="1" style="stop-color:#0A9E50"/>
</linearGradient>
<path style="fill:url(#SVGID_1_);" d="M23.5,38C23,41,21,42,18,42c-4.71,0-8.18-4.31-9.45-11c-0.04-0.16-0.07-0.33-0.1-0.5
	c-0.03-0.16-0.06-0.33-0.08-0.5c-0.05-0.33-0.1-0.66-0.14-1h2.38c0.01,0.33,0.02,0.66,0.06,1c0.01,0.16,0.03,0.33,0.05,0.5
	c0.02,0.16,0.04,0.33,0.07,0.5C11,32.31,11.4,33.67,12,35c2.5,5.5,5.5,5,6,5s3,0,3-2.5c0-1-1-3-1.5-4c-1,0-2,0.5-3,1.5
	c0.5,2,2,1.5,1.5,0c2,1,1,2.5-0.5,2.5c-1,0-2.5-1.5-2.5-3c0.5-1,2-2,3-2.5c1.5,0,2.5,0,3.5,1C22.5,34.5,23.5,36.5,23.5,38z"/>
<radialGradient id="SVGID_2_" cx="41.4111" cy="9.9973" r="7.8257" gradientTransform="matrix(0.7738 0.6335 -0.8491 1.0372 17.8573 -26.6044)" gradientUnits="userSpaceOnUse">
	<stop  offset="0" style="stop-color:#F9F9F9"/>
	<stop  offset="0.2601" style="stop-color:#F0F1F2"/>
	<stop  offset="0.6784" style="stop-color:#D9DCDF"/>
	<stop  offset="1" style="stop-color:#C2C8CC"/>
</radialGradient>
<path style="fill:url(#SVGID_2_);" d="M40,7c2.5,0,4,1,4,4s-2.5,6.5-5,7s-6-3-6-3s-0.5-3.5,1-5S38,7,40,7z"/>
<linearGradient id="SVGID_3_" gradientUnits="userSpaceOnUse" x1="39.087" y1="10.087" x2="42.5432" y2="13.5432">
	<stop  offset="0" style="stop-color:#6D6D6D"/>
	<stop  offset="0.1255" style="stop-color:#626262"/>
	<stop  offset="0.8864" style="stop-color:#464646"/>
	<stop  offset="1" style="stop-color:#454545"/>
</linearGradient>
<circle style="fill:url(#SVGID_3_);" cx="41" cy="12" r="1"/>
<linearGradient id="SVGID_4_" gradientUnits="userSpaceOnUse" x1="34.5" y1="32.2391" x2="34.5" y2="30.7709">
	<stop  offset="0" style="stop-color:#4AAF50"/>
	<stop  offset="0.1846" style="stop-color:#43AD50"/>
	<stop  offset="0.4045" style="stop-color:#38AA50"/>
	<stop  offset="0.6127" style="stop-color:#27A550"/>
	<stop  offset="0.8184" style="stop-color:#14A150"/>
	<stop  offset="1" style="stop-color:#0A9E50"/>
</linearGradient>
<path style="fill:url(#SVGID_4_);" d="M32,29.9c0.417,0.4,0.833,1.6,2.5,1.6s2.5-2,2.5-2h-5V29.9z"/>
<linearGradient id="SVGID_5_" gradientUnits="userSpaceOnUse" x1="18.11" y1="28.9375" x2="18.11" y2="26.3178">
	<stop  offset="0" style="stop-color:#4AAF50"/>
	<stop  offset="0.1846" style="stop-color:#43AD50"/>
	<stop  offset="0.4045" style="stop-color:#38AA50"/>
	<stop  offset="0.6127" style="stop-color:#27A550"/>
	<stop  offset="0.8184" style="stop-color:#14A150"/>
	<stop  offset="1" style="stop-color:#0A9E50"/>
</linearGradient>
<path style="fill:url(#SVGID_5_);" d="M19.72,25.37c-0.01,0.17-0.02,0.34-0.03,0.5C19.62,26.5,19.5,27,19.5,27L18,27.5L16.5,27
	c0,0,0.5-0.5,1-1c0.11-0.11,0.21-0.23,0.31-0.38c0.1-0.14,0.19-0.3,0.26-0.46c0.06-0.16,0.11-0.32,0.13-0.48
	c0.03-0.26-0.02-0.5-0.2-0.68c0,0,0,0,1.5,0c0.12,0.24,0.18,0.55,0.21,0.87C19.72,25.04,19.72,25.21,19.72,25.37z"/>
<linearGradient id="SVGID_6_" gradientUnits="userSpaceOnUse" x1="17.9378" y1="6.4059" x2="27.244" y2="31.9746">
	<stop  offset="0" style="stop-color:#4AAF50"/>
	<stop  offset="0.1846" style="stop-color:#43AD50"/>
	<stop  offset="0.4045" style="stop-color:#38AA50"/>
	<stop  offset="0.6127" style="stop-color:#27A550"/>
	<stop  offset="0.8184" style="stop-color:#14A150"/>
	<stop  offset="1" style="stop-color:#0A9E50"/>
</linearGradient>
<path style="fill:url(#SVGID_6_);" d="M41,21c0,1-4.5,4.5-9,2.5C28.5,25,25,24,25,24c-2,1-8.5,2-11-2c-2.22,0.95-3.43,3.71-3.39,7
	H8.23C8.08,27.74,8,26.4,8,25c0-9,5-15,11-15s8.09,3.92,16,5.5C40,16.5,41,20,41,21z"/>
<linearGradient id="SVGID_7_" gradientUnits="userSpaceOnUse" x1="23.12" y1="26.5978" x2="23.12" y2="29.4391">
	<stop  offset="0" style="stop-color:#FFCF7B"/>
	<stop  offset="0.196" style="stop-color:#FECD76"/>
	<stop  offset="0.439" style="stop-color:#FAC666"/>
	<stop  offset="0.709" style="stop-color:#F3BC4D"/>
	<stop  offset="0.995" style="stop-color:#EAAD2A"/>
	<stop  offset="1" style="stop-color:#EAAD29"/>
</linearGradient>
<path style="fill:url(#SVGID_7_);" d="M42.74,29.53L40,30H4c-0.28,0-0.5-0.22-0.5-0.5v-1.19c0-0.19,0.11-0.36,0.28-0.45l1.61-0.81
	C5.46,27.02,5.54,27,5.62,27H40l2.74,0.47V29.53z"/>
<linearGradient id="SVGID_8_" gradientUnits="userSpaceOnUse" x1="23" y1="22.9783" x2="23" y2="29.7159">
	<stop  offset="0" style="stop-color:#FFCF7B"/>
	<stop  offset="0.196" style="stop-color:#FECD76"/>
	<stop  offset="0.439" style="stop-color:#FAC666"/>
	<stop  offset="0.709" style="stop-color:#F3BC4D"/>
	<stop  offset="0.995" style="stop-color:#EAAD2A"/>
	<stop  offset="1" style="stop-color:#EAAD29"/>
</linearGradient>
<rect x="6" y="28.5" style="fill:url(#SVGID_8_);" width="34" height="1.5"/>
<linearGradient id="SVGID_9_" gradientUnits="userSpaceOnUse" x1="18.9009" y1="6.0174" x2="28.2496" y2="31.7028">
	<stop  offset="0" style="stop-color:#4AAF50"/>
	<stop  offset="0.1846" style="stop-color:#43AD50"/>
	<stop  offset="0.4045" style="stop-color:#38AA50"/>
	<stop  offset="0.6127" style="stop-color:#27A550"/>
	<stop  offset="0.8184" style="stop-color:#14A150"/>
	<stop  offset="1" style="stop-color:#0A9E50"/>
</linearGradient>
<path style="fill:url(#SVGID_9_);" d="M23.897,21.992C23.334,22.774,23.5,25.5,25,27c1,1,0,4,1.5,4s0.5-1.382,0.5-2.5
	c0-0.5,1-1,1.5-1.5c0-1-1-1.5-2,0c-1-0.5-1.5-2-0.5-5C24.5,22,23.897,21.992,23.897,21.992z"/>
<linearGradient id="SVGID_10_" gradientUnits="userSpaceOnUse" x1="8.3034" y1="9.9192" x2="17.6585" y2="35.6223">
	<stop  offset="0" style="stop-color:#4AAF50"/>
	<stop  offset="0.1846" style="stop-color:#43AD50"/>
	<stop  offset="0.4045" style="stop-color:#38AA50"/>
	<stop  offset="0.6127" style="stop-color:#27A550"/>
	<stop  offset="0.8184" style="stop-color:#14A150"/>
	<stop  offset="1" style="stop-color:#0A9E50"/>
</linearGradient>
<path style="fill:url(#SVGID_10_);" d="M14,22c-0.5,0.5-1.5,2.5,0,4.5c-1,0.5-2,1-2,2s2,2,3.5,2s-1-1-1.5-2s1-1.5,2-1.5
	c-0.5-0.5-2-2.5,0-4.5c-1-1-2-1-2-1V22z"/>
<radialGradient id="SVGID_11_" cx="28.8967" cy="9.3804" r="9.4971" gradientTransform="matrix(0.9962 -0.0867 0.1094 1.2571 -0.9173 0.0935)" gradientUnits="userSpaceOnUse">
	<stop  offset="0" style="stop-color:#F9F9F9"/>
	<stop  offset="0.2601" style="stop-color:#F0F1F2"/>
	<stop  offset="0.6784" style="stop-color:#D9DCDF"/>
	<stop  offset="1" style="stop-color:#C2C8CC"/>
</radialGradient>
<path style="fill:url(#SVGID_11_);" d="M29,5c-2,0-5,2-5,7s3,7.5,6,7.5c2,0,5-2.5,5-6.5C35,9.5,33,5,29,5z"/>
<linearGradient id="SVGID_12_" gradientUnits="userSpaceOnUse" x1="25.9239" y1="10.9239" x2="30.2549" y2="15.2549">
	<stop  offset="0" style="stop-color:#6D6D6D"/>
	<stop  offset="0.1255" style="stop-color:#626262"/>
	<stop  offset="0.8864" style="stop-color:#464646"/>
	<stop  offset="1" style="stop-color:#454545"/>
</linearGradient>
<circle style="fill:url(#SVGID_12_);" cx="28.5" cy="13.5" r="1.5"/>
<linearGradient id="SVGID_13_" gradientUnits="userSpaceOnUse" x1="4.375" y1="24.8533" x2="4.375" y2="30.4398">
	<stop  offset="0" style="stop-color:#F9F9F9"/>
	<stop  offset="0.2601" style="stop-color:#F0F1F2"/>
	<stop  offset="0.6784" style="stop-color:#D9DCDF"/>
	<stop  offset="1" style="stop-color:#C2C8CC"/>
</linearGradient>
<path style="fill:url(#SVGID_13_);" d="M7.161,28.177c-0.103,0.205-0.113,0.445-0.027,0.658L7.6,30H1.5C1.224,30,1,29.776,1,29.5
	v-1.19c0-0.19,0.107-0.363,0.276-0.448L2.89,27.05c0.06-0.014,0.151-0.036,0.211-0.05H7.75L7.161,28.177z"/>
<linearGradient id="SVGID_14_" gradientUnits="userSpaceOnUse" x1="5.3913" y1="28.5" x2="1.3969" y2="28.5">
	<stop  offset="0" style="stop-color:#F09CA2"/>
	<stop  offset="1" style="stop-color:#EB6773"/>
</linearGradient>
<path style="fill:url(#SVGID_14_);" d="M4.254,28.508L5,30H1.5C1.224,30,1,29.776,1,29.5v-1.19c0-0.19,0.107-0.363,0.276-0.448
	L2.89,27.05c0.06-0.014,0.151-0.036,0.211-0.05H5l-0.599,0.599C4.162,27.838,4.102,28.205,4.254,28.508z"/>
<linearGradient id="SVGID_15_" gradientUnits="userSpaceOnUse" x1="43.2385" y1="24.8533" x2="43.2385" y2="30.4398">
	<stop  offset="0" style="stop-color:#F9F9F9"/>
	<stop  offset="0.2601" style="stop-color:#F0F1F2"/>
	<stop  offset="0.6784" style="stop-color:#D9DCDF"/>
	<stop  offset="1" style="stop-color:#C2C8CC"/>
</linearGradient>
<path style="fill:url(#SVGID_15_);" d="M46.71,28.85l-3.97,0.68L40,30h-0.5c0,0-0.057-0.757,0-1c0.064-0.272,0.436-0.728,0.5-1
	c0.057-0.243,0-1,0-1l2.74,0.47l3.97,0.68C47.1,28.22,47.1,28.78,46.71,28.85z"/>
<linearGradient id="SVGID_16_" gradientUnits="userSpaceOnUse" x1="41.9457" y1="28.5" x2="45.8308" y2="28.5">
	<stop  offset="0" style="stop-color:#6D6D6D"/>
	<stop  offset="0.1255" style="stop-color:#626262"/>
	<stop  offset="0.8864" style="stop-color:#464646"/>
	<stop  offset="1" style="stop-color:#454545"/>
</linearGradient>
<path style="fill:url(#SVGID_16_);" d="M46.71,28.85l-3.97,0.68c0.18-0.58,0.18-1.48,0-2.06l3.97,0.68
	C47.1,28.22,47.1,28.78,46.71,28.85z"/>
<linearGradient id="SVGID_17_" gradientUnits="userSpaceOnUse" x1="24.9481" y1="3.8145" x2="34.2864" y2="29.4713">
	<stop  offset="0" style="stop-color:#4AAF50"/>
	<stop  offset="0.1846" style="stop-color:#43AD50"/>
	<stop  offset="0.4045" style="stop-color:#38AA50"/>
	<stop  offset="0.6127" style="stop-color:#27A550"/>
	<stop  offset="0.8184" style="stop-color:#14A150"/>
	<stop  offset="1" style="stop-color:#0A9E50"/>
</linearGradient>
<path style="fill:url(#SVGID_17_);" d="M36.5,27c0,0-2,0-3,0S33,29,32,29s-0.5-1.5,0-2c-0.8-0.53-1.45-1.21-1.97-1.87
	c-0.12-0.15-0.23-0.3-0.33-0.45c-0.11-0.16-0.21-0.31-0.3-0.46c-0.16-0.26-0.29-0.5-0.4-0.72l2.5-0.5c0,0,0.1,0.24,0.25,0.6
	c0.05,0.14,0.11,0.29,0.18,0.46c0.08,0.18,0.16,0.38,0.24,0.58c0.29,0.68,0.61,1.42,0.83,1.86C34.5,25.5,36,26.5,36.5,27z"/>
<g>
	<g>
		<g style="opacity:0.05;">
			<path d="M35.23,8.95c-0.14,0.1-0.28,0.21-0.41,0.32c-0.14,0.11-0.27,0.22-0.4,0.34C34.81,10.73,35,11.91,35,13c0,4-3,6.5-5,6.5
				c-3,0-6-2.5-6-7.5c0-0.32,0.01-0.63,0.03-0.93c-0.16-0.08-0.32-0.14-0.48-0.2c-0.16-0.07-0.32-0.13-0.48-0.18
				C23.02,11.1,23,11.54,23,12c0,5.58,3.52,8.5,7,8.5c2.51,0,6-2.85,6-7.5C36,11.73,35.75,10.3,35.23,8.95z"/>
		</g>
		<g style="opacity:0.07;">
			<path d="M34.82,9.27c-0.14,0.11-0.27,0.22-0.4,0.34C34.81,10.73,35,11.91,35,13c0,4-3,6.5-5,6.5c-3,0-6-2.5-6-7.5
				c0-0.32,0.01-0.63,0.03-0.93c-0.16-0.08-0.32-0.14-0.48-0.2C23.52,11.23,23.5,11.6,23.5,12c0,5.5,3.37,8,6.5,8
				c2.24,0,5.5-2.73,5.5-7C35.5,11.84,35.28,10.51,34.82,9.27z"/>
		</g>
	</g>
</g>
<g>
	<g style="opacity:0.05;">
		<path d="M19.71,24.87c-0.5-0.03-1.01-0.09-1.51-0.19c-0.02,0.16-0.07,0.32-0.13,0.48c-0.07,0.16-0.16,0.32-0.26,0.46
			c0.59,0.13,1.22,0.22,1.88,0.25c0.01-0.16,0.02-0.33,0.03-0.5C19.72,25.21,19.72,25.04,19.71,24.87z M31.93,24.06
			c-0.07-0.17-0.13-0.32-0.18-0.46c-0.8,0.32-1.6,0.51-2.35,0.62c0.09,0.15,0.19,0.3,0.3,0.46c0.1,0.15,0.21,0.3,0.33,0.45
			c0.68-0.12,1.34-0.31,1.97-0.55c0.06,0.02,0.11,0.04,0.17,0.06C32.09,24.44,32.01,24.24,31.93,24.06z"/>
	</g>
	<g style="opacity:0.07;">
		<path d="M19.71,24.87c-0.5-0.03-1.01-0.09-1.51-0.19c-0.02,0.16-0.07,0.32-0.13,0.48c0.52,0.11,1.07,0.18,1.65,0.21
			C19.72,25.21,19.72,25.04,19.71,24.87z M31.75,23.6c-0.8,0.32-1.6,0.51-2.35,0.62c0.09,0.15,0.19,0.3,0.3,0.46
			c0.78-0.13,1.52-0.33,2.23-0.62C31.86,23.89,31.8,23.74,31.75,23.6z"/>
	</g>
</g>
<path style="opacity:0.05;" d="M10.79,31H8.55c-0.04-0.16-0.07-0.33-0.1-0.5c-0.03-0.16-0.06-0.33-0.08-0.5h2.3
	c0.01,0.16,0.03,0.33,0.05,0.5C10.74,30.66,10.76,30.83,10.79,31z"/>
<path style="opacity:0.07;" d="M10.72,30.5H8.45c-0.03-0.16-0.06-0.33-0.08-0.5h2.3C10.68,30.16,10.7,30.33,10.72,30.5z"/>
</svg>